<svg id="Layer_1" data-name="Layer 1" xmlns="http://www.w3.org/2000/svg" viewBox="0 0 221.87 31.28">
  <title>GCLogo-wordmark</title>
  <g>
    <path d="M55.68,210c-2.07-1.91-5.11-2.55-7.82-2.55a8.18,8.18,0,0,0-8.46,8.3c0,4.79,3.67,8.3,8.62,8.3A11.14,11.14,0,0,0,53,222.92v-5.43H48.66l-.16-.16v-2.87l.16-.16H56l.16.16v10.38A13.71,13.71,0,0,1,48,227.39c-6.86,0-12.29-5.11-12.29-11.65a11.82,11.82,0,0,1,12.13-11.65c3,0,5.91.48,8,2.07v3.67Z" transform="translate(-35.73 -204.09)"/>
    <path d="M62.71,211.91l.15.16v.48a8.31,8.31,0,0,1,4-1.12,6.28,6.28,0,0,1,2.88.64l.16,3.19-.16.16a4.43,4.43,0,0,0-2.88-1,5.4,5.4,0,0,0-4,1.6v10.69l-.15.16H59.83l-.16-.16V212.07l.16-.16Z" transform="translate(-35.73 -204.09)"/>
    <path d="M85.21,225.31a11.43,11.43,0,0,1-6.06,2.08,8.2,8.2,0,0,1-8.3-8.11,7.51,7.51,0,0,1,7.66-7.85c4,0,6.7,3.51,6.7,7.82a1.8,1.8,0,0,1-.16.8l-.32.16H74.1a4.92,4.92,0,0,0,5.05,4.15,8.64,8.64,0,0,0,5.9-2.56l.16.16ZM82,217.65a3.61,3.61,0,0,0-3.51-3.19,4.3,4.3,0,0,0-4.28,3.19Z" transform="translate(-35.73 -204.09)"/>
    <path d="M102,212.07v2.87l-.16.16h-1.76a5.83,5.83,0,0,1-5.58,8.14,5.11,5.11,0,0,1-2.24-.48.82.82,0,0,0-.31.64c0,2.07,10.21,1,10.21,7,0,2.84-2.87,5-7.34,5s-8-1.28-8-4.79c0-1.75,1.43-3.19,3.35-4.47a2.68,2.68,0,0,1-1.28-2.23,3.18,3.18,0,0,1,1.34-2.4,5.5,5.5,0,0,1-1.82-4.15,6,6,0,0,1,6.07-5.9,6.57,6.57,0,0,1,2.39.48h5ZM90.16,230.58c0,1.28,1.44,1.92,4.63,1.92,2.71,0,4-1,4-2.08,0-2.07-4.47-2.71-6.07-3.19C91.6,227.87,90.16,229.18,90.16,230.58Zm1.44-13.25a2.87,2.87,0,1,0,2.87-3A2.92,2.92,0,0,0,91.6,217.33Z" transform="translate(-35.73 -204.09)"/>
    <path d="M120,219.41a8,8,0,1,1-8-8A7.9,7.9,0,0,1,120,219.41Zm-12.61,0a4.64,4.64,0,1,0,4.63-4.95A4.62,4.62,0,0,0,107.4,219.41Z" transform="translate(-35.73 -204.09)"/>
    <path d="M125.91,211.91l.16.16v.48a8.31,8.31,0,0,1,4-1.12,6.28,6.28,0,0,1,2.88.64l.16,3.19-.16.16a4.43,4.43,0,0,0-2.88-1,5.4,5.4,0,0,0-4,1.6v10.69l-.16.16H123l-.16-.16V212.07l.16-.16Z" transform="translate(-35.73 -204.09)"/>
    <path d="M137.57,211.91l.32.16,4.62,9.73,4.63-9.73.32-.16h3.35l.16.16-9.41,18.51c-1.28,2.24-2.88,4-6.71,4l-.16-.22v-2.49l.16-.16a4.21,4.21,0,0,0,4-2.55l1.92-4-6.71-13.08.16-.16Z" transform="translate(-35.73 -204.09)"/>
    <path d="M172.2,210.31a11.89,11.89,0,0,0-7.5-2.87,8.3,8.3,0,0,0,0,16.6,11.84,11.84,0,0,0,7.5-2.88l.16.16V225a12.79,12.79,0,0,1-7.66,2.39,11.65,11.65,0,1,1,0-23.3,12.79,12.79,0,0,1,7.66,2.39v3.67Z" transform="translate(-35.73 -204.09)"/>
    <path d="M190.56,219.41a8,8,0,1,1-8-8A7.9,7.9,0,0,1,190.56,219.41Zm-12.61,0a4.64,4.64,0,1,0,4.63-4.95A4.62,4.62,0,0,0,178,219.41Z" transform="translate(-35.73 -204.09)"/>
    <path d="M193.59,211.91l.16.16,4.15,10.37,3.35-9.73.16-.16H204l.15.16,3.36,9.73,4.15-10.37.16-.16H215l.16.16-6.07,14.68-.16.16H206l-.16-.16-3.19-8.3-3.19,8.3-.16.16h-2.88l-.16-.16-6.06-14.68.16-.16Z" transform="translate(-35.73 -204.09)"/>
    <path d="M219.45,204.57l.16.16v16.75c0,2.08.8,2.88,2.07,2.88a3.91,3.91,0,0,0,2.88-1.28l.16.16v3.19a6.21,6.21,0,0,1-3,1c-3.35,0-5.26-2.08-5.26-5.75V204.73l.16-.16Z" transform="translate(-35.73 -204.09)"/>
    <path d="M240.36,225.31a11.43,11.43,0,0,1-6.07,2.08,8.2,8.2,0,0,1-8.3-8.11,7.52,7.52,0,0,1,7.66-7.85c4,0,6.71,3.51,6.71,7.82a1.8,1.8,0,0,1-.16.8l-.32.16H229.25a4.91,4.91,0,0,0,5,4.15,8.64,8.64,0,0,0,5.91-2.56l.16.16Zm-3.19-7.66a3.62,3.62,0,0,0-3.52-3.19,4.28,4.28,0,0,0-4.27,3.19Z" transform="translate(-35.73 -204.09)"/>
    <path d="M244.19,211.91l.32.16,4.63,9.73,4.63-9.73.32-.16h3.35l.16.16-9.42,18.51c-1.28,2.24-2.87,4-6.7,4l-.16-.22v-2.49l.16-.16a4.22,4.22,0,0,0,4-2.55l1.91-4-6.7-13.08.16-.16Z" transform="translate(-35.73 -204.09)"/>
  </g>
</svg>
